<?xml version="1.0" encoding="UTF-8" standalone="no"?>
<svg
   width="1019.9999999999999"
   height="593"
   version="1.1"
   id="svg1166"
   sodipodi:docname="Us_senate_118th_congress.svg"
   inkscape:version="1.1.1 (3bf5ae0d25, 2021-09-20)"
   xmlns:inkscape="http://www.inkscape.org/namespaces/inkscape"
   xmlns:sodipodi="http://sodipodi.sourceforge.net/DTD/sodipodi-0.dtd"
   xmlns="http://www.w3.org/2000/svg"
   xmlns:svg="http://www.w3.org/2000/svg"
   xmlns:rdf="http://www.w3.org/1999/02/22-rdf-syntax-ns#"
   xmlns:cc="http://creativecommons.org/ns#"
   xmlns:dc="http://purl.org/dc/elements/1.1/">
  <sodipodi:namedview
     id="namedview1168"
     pagecolor="#ffffff"
     bordercolor="#666666"
     borderopacity="1.0"
     inkscape:pageshadow="2"
     inkscape:pageopacity="0.0"
     inkscape:pagecheckerboard="0"
     showgrid="false"
     inkscape:zoom="1.7382353"
     inkscape:cx="510"
     inkscape:cy="296.56514"
     inkscape:window-width="2560"
     inkscape:window-height="1369"
     inkscape:window-x="-8"
     inkscape:window-y="-8"
     inkscape:window-maximized="1"
     inkscape:current-layer="outlines" />
  <metadata
     id="metadata165">image/svg+xml<rdf:RDF>
  <cc:Work
     rdf:about="">
    <dc:title>states</dc:title>
  </cc:Work>
</rdf:RDF>
</metadata>
  <title
     id="title998">states</title>
  <defs
     id="defs1002">
    <style
       type="text/css"
       id="style1000">.state{fill:#DBDBDB;}</style>
  </defs>
  <g
     id="g1007">
    <title
       id="title1004">background</title>
    <rect
       fill="none"
       id="canvas_background"
       height="595"
       width="1022"
       y="-1"
       x="-1" />
  </g>
  <g
     id="g1164">
    <g
       class="state"
       id="outlines">
      <path
         d="m161.1,453.7l-0.3,85.4l1.6,1l3.1,0.2l1.5,-1.1l2.6,0l0.2,2.9l7,6.8l0.5,2.6l3.4,-1.9l0.6,-0.2l0.3,-3.1l1.5,-1.6l1.1,-0.2l1.9,-1.5l3.1,2.1l0.6,2.9l1.9,1.1l1.1,2.4l3.9,1.8l3.4,6l2.7,3.9l2.3,2.7l1.5,3.7l5,1.8l5.2,2.1l1,4.4l0.5,3.1l-1,3.4l-1.8,2.3l-1.6,-0.8l-1.5,-3.1l-2.7,-1.5l-1.8,-1.1l-0.8,0.8l1.5,2.7l0.2,3.7l-1.1,0.5l-1.9,-1.9l-2.1,-1.3l0.5,1.6l1.3,1.8l-0.8,0.8s-0.8,-0.3 -1.3,-1c-0.5,-0.6 -2.1,-3.4 -2.1,-3.4l-1,-2.3s-0.3,1.3 -1,1c-0.6,-0.3 -1.3,-1.5 -1.3,-1.5l1.8,-1.9l-1.5,-1.5l0,-5l-0.8,0l-0.8,3.4l-1.1,0.5l-1,-3.7l-0.6,-3.7l-0.8,-0.5l0.3,5.7l0,1.1l-1.5,-1.3l-3.6,-6l-2.1,-0.5l-0.6,-3.7l-1.6,-2.9l-1.6,-1.1l0,-2.3l2.1,-1.3l-0.5,-0.3l-2.6,0.6l-3.4,-2.4l-2.6,-2.9l-4.8,-2.6l-4,-2.6l1.3,-3.2l0,-1.6l-1.8,1.6l-2.9,1.1l-3.7,-1.1l-5.7,-2.4l-5.5,0l-0.6,0.5l-6.5,-3.9l-2.1,-0.3l-2.7,-5.8l-3.6,0.3l-3.6,1.5l0.5,4.5l1.1,-2.9l1,0.3l-1.5,4.4l3.2,-2.7l0.6,1.6l-3.9,4.4l-1.3,-0.3l-0.5,-1.9l-1.3,-0.8l-1.3,1.1l-2.7,-1.8l-3.1,2.1l-1.8,2.1l-3.4,2.1l-4.7,-0.2l-0.5,-2.1l3.7,-0.6l0,-1.3l-2.3,-0.6l1,-2.4l2.3,-3.9l0,-1.8l0.2,-0.8l4.4,-2.3l1,1.3l2.7,0l-1.3,-2.6l-3.7,-0.3l-5,2.7l-2.4,3.4l-1.8,2.6l-1.1,2.3l-4.2,1.5l-3.1,2.6l-0.3,1.6l2.3,1l0.8,2.1l-2.7,3.2l-6.5,4.2l-7.8,4.2l-2.1,1.1l-5.3,1.1l-5.3,2.3l1.8,1.3l-1.5,1.5l-0.5,1.1l-2.7,-1l-3.2,0.2l-0.8,2.3l-1,0l0.3,-2.4l-3.6,1.3l-2.9,1l-3.4,-1.3l-2.9,1.9l-3.2,0l-2.1,1.3l-1.6,0.8l-2.1,-0.3l-2.6,-1.1l-2.3,0.6l-1,1l-1.6,-1.1l0,-1.9l3.1,-1.3l6.3,0.6l4.4,-1.6l2.1,-2.1l2.9,-0.6l1.8,-0.8l2.7,0.2l1.6,1.3l1,-0.3l2.3,-2.7l3.1,-1l3.4,-0.6l1.3,-0.3l0.6,0.5l0.8,0l1.3,-3.7l4,-1.5l1.9,-3.7l2.3,-4.5l1.6,-1.5l0.3,-2.6l-1.6,1.3l-3.4,0.6l-0.6,-2.4l-1.3,-0.3l-1,1l-0.2,2.9l-1.5,-0.2l-1.5,-5.8l-1.3,1.3l-1.1,-0.5l-0.3,-1.9l-4,0.2l-2.1,1.1l-2.6,-0.3l1.5,-1.5l0.5,-2.6l-0.6,-1.9l1.5,-1l1.3,-0.2l-0.6,-1.8l0,-4.4l-1,-1l-0.8,1.5l-6.1,0l-1.5,-1.3l-0.6,-3.9l-2.1,-3.6l0,-1l2.1,-0.8l0.2,-2.1l1.1,-1.1l-0.8,-0.5l-1.3,0.5l-1.1,-2.7l1,-5l4.5,-3.2l2.6,-1.6l1.9,-3.7l2.7,-1.3l2.6,1.1l0.3,2.4l2.4,-0.3l3.2,-2.4l1.6,0.6l1,0.6l1.6,0l2.3,-1.3l0.8,-4.4s0.3,-2.9 1,-3.4c0.6,-0.5 1,-1 1,-1l-1.1,-1.9l-2.6,0.8l-3.2,0.8l-1.9,-0.5l-3.6,-1.8l-5,-0.2l-3.6,-3.7l0.5,-3.9l0.6,-2.4l-2.1,-1.8l-1.9,-3.7l0.5,-0.8l6.8,-0.5l2.1,0l1,1l0.6,0l-0.2,-1.6l3.9,-0.6l2.6,0.3l1.5,1.1l-1.5,2.1l-0.5,1.5l2.7,1.6l5,1.8l1.8,-1l-2.3,-4.4l-1,-3.2l1,-0.8l-3.4,-1.9l-0.5,-1.1l0.5,-1.6l-0.8,-3.9l-2.9,-4.7l-2.4,-4.2l2.9,-1.9l3.2,0l1.8,0.6l4.2,-0.2l3.7,-3.6l1.1,-3.1l3.7,-2.4l1.6,1l2.7,-0.6l3.7,-2.1l1.1,-0.2l1,0.8l4.5,-0.2l2.7,-3.1l1.1,0l3.6,2.4l1.9,2.1l-0.5,1.1l0.6,1.1l1.6,-1.6l3.9,0.3l0.3,3.7l1.9,1.5l7.1,0.6l6.3,4.2l1.5,-1l5.2,2.6l2.1,-0.6l1.9,-0.8l4.8,1.9l4.5,2.7zm-115.1,28.9l2.1,5.3l-0.2,1l-2.9,-0.3l-1.8,-4l-1.8,-1.5l-2.4,0l-0.2,-2.6l1.8,-2.4l1.1,2.4l1.5,1.5l2.8,0.6zm-2.6,33.5l3.7,0.8l3.7,1l0.8,1l-1.6,3.7l-3.1,-0.2l-3.4,-3.6l-0.1,-2.7zm-20.7,-14.1l1.1,2.6l1.1,1.6l-1.1,0.8l-2.1,-3.1l0,-1.9l1,0zm-13.7,73.1l3.4,-2.3l3.4,-1l2.6,0.3l0.5,1.6l1.9,0.5l1.9,-1.9l-0.3,-1.6l2.7,-0.6l2.9,2.6l-1.1,1.8l-4.4,1.1l-2.7,-0.5l-3.7,-1.1l-4.4,1.5l-1.6,0.3l-1.1,-0.7zm48.9,-4.5l1.6,1.9l2.1,-1.6l-1.5,-1.3l-2.2,1zm2.9,3l1.1,-2.3l2.1,0.3l-0.8,1.9l-2.4,0l0,0.1zm23.6,-1.9l1.5,1.8l1,-1.1l-0.8,-1.9l-1.7,1.2zm8.8,-12.5l1.1,5.8l2.9,0.8l5,-2.9l4.4,-2.6l-1.6,-2.4l0.5,-2.4l-2.1,1.3l-2.9,-0.8l1.6,-1.1l1.9,0.8l3.9,-1.8l0.5,-1.5l-2.4,-0.8l0.8,-1.9l-2.7,1.9l-4.7,3.6l-4.8,2.9l-1.4,1.1zm42.3,-19.8l2.4,-1.5l-1,-1.8l-1.8,1l0.4,2.3z"
         id="AK" />
      <path
         d="m233.1,519.3l1.9,-3.6l2.3,-0.3l0.3,0.8l-2.1,3.1l-2.4,0zm10.2,-3.7l6.1,2.6l2.1,-0.3l1.6,-3.9l-0.6,-3.4l-4.2,-0.5l-4,1.8l-1,3.7zm30.7,10l3.7,5.5l2.4,-0.3l1.1,-0.5l1.5,1.3l3.7,-0.2l1,-1.5l-2.9,-1.8l-1.9,-3.7l-2.1,-3.6l-5.8,2.9l-0.7,1.9zm20.2,8.9l1.3,-1.9l4.7,1l0.6,-0.5l6.1,0.6l-0.3,1.3l-2.6,1.5l-4.4,-0.3l-5.4,-1.7zm5.3,5.2l1.9,3.9l3.1,-1.1l0.3,-1.6l-1.6,-2.1l-3.7,-0.3l0,1.2zm7,-1.2l2.3,-2.9l4.7,2.4l4.4,1.1l4.4,2.7l0,1.9l-3.6,1.8l-4.8,1l-2.4,-1.5l-5,-6.5zm16.6,15.6l1.6,-1.3l3.4,1.6l7.6,3.6l3.4,2.1l1.6,2.4l1.9,4.4l4,2.6l-0.3,1.3l-3.9,3.2l-4.2,1.5l-1.5,-0.6l-3.1,1.8l-2.4,3.2l-2.3,2.9l-1.8,-0.2l-3.6,-2.6l-0.3,-4.5l0.6,-2.4l-1.6,-5.7l-2.1,-1.8l-0.2,-2.6l2.3,-1l2.1,-3.1l0.5,-1l-1.6,-1.8l-0.1,-2z"
         id="HI" />
      <path
         d="m628.5,466.4l0.6,0.2l1.3,-2.7l1.5,-4.4l2.3,0.6l3.1,6l0,1l-2.7,1.9l2.7,0.3l5.2,-2.5l-0.3,-7.6l-2.5,-1.8l-2,-2l0.4,-4l10.5,-1.5l25.7,-2.9l6.7,-0.6l5.6,0.1l-0.5,-2.2l-1.5,-0.8l-0.9,-1.1l1,-2.6l-0.4,-5.2l-1.6,-4.5l0.8,-5.1l1.7,-4.8l-0.2,-1.7l-1.8,-0.7l-0.5,-3.6l-2.7,-3.4l-2,-6.5l-1.4,-6.7l-1.8,-5l-3.8,-16l-3.5,-7.9l-0.8,-5.6l0.1,-2.2l-9,0.8l-23.4,2.2l-12.2,0.8l-0.2,6.4l0.2,16.7l-0.7,31l-0.3,14.1l2.8,18.8l1.6,14.7l2.9,0z"
         id="AL" />
      <path
         d="m587.3,346.1l-6.4,-0.7l0.9,-3.1l3.1,-2.6l0.6,-2.3l-1.8,-2.9l-31.9,1.2l-23.3,0.7l-23.6,0.3l1.5,6.9l0.1,8.5l1.4,10.9l0.3,38.2l2.1,1.6l3,-1.2l2.9,1.2l0.4,10.1l25.2,-0.2l26.8,-0.8l0.9,-1.9l-0.3,-3.8l-1.7,-3.1l1.5,-1.4l-1.4,-2.2l0.7,-2.4l1.1,-5.9l2.7,-2.3l-0.8,-2.2l4,-5.6l2.5,-1.1l-0.1,-1.7l-0.5,-1.7l2.9,-5.8l2.5,-1.1l0.2,-3.3l2.1,-1.4l0.9,-4.1l-1.4,-4l4.2,-2.4l0.3,-2.1l1.2,-4.2l0.9,-3.1l-3.7,1z"
         id="AR" />
      <path
         d="m135.1,389.7l-0.3,1.5l0.5,1l18.9,10.7l12.1,7.6l14.7,8.6l16.8,10l12.3,2.4l25.4,2.7l6,-39.6l7,-53.1l4.4,-31l-24.6,-3.6l-60.7,-11l-0.2,1.1l-2.6,16.5l-2.1,3.8l-2.8,-0.2l-1.2,-2.6l-2.6,-0.4l-1.2,-1.1l-1.1,0.1l-2.1,1.7l-0.3,6.8l-0.3,1.5l-0.5,12.5l-1.5,2.4l-0.4,3.3l2.8,5l1.1,5.5l0.7,1.1l1.1,0.9l-0.4,2.4l-1.7,1.2l-3.4,1.6l-1.6,1.8l-1.6,3.6l-0.5,4.9l-3,2.9l-1.9,0.9l-0.1,5.8l-0.6,1.6l0.5,0.8l3.9,0.4l-0.9,3l-1.7,2.4l-3.7,0.4l-2.6,2.2z"
         id="AZ" />
      <path
         d="m122.7,385.9l-19.7,-2.7l-10,-1.5l-0.5,-1.8l0,-9.4l-0.3,-3.2l-2.6,-4.2l-0.8,-2.3l-3.9,-4.2l-2.9,-4.7l-2.7,-0.2l-3.2,-0.8l-0.3,-1l1.5,-0.6l-0.6,-3.2l-1.5,-2.1l-4.8,-0.8l-3.9,-2.1l-1.1,-2.3l-2.6,-4.8l-2.9,-3.1l-2.9,0l-3.9,-2.1l-4.5,-1.8l-4.2,-0.5l-2.4,-2.7l0.5,-1.9l1.8,-7.1l0.8,-1.9l0,-2.4l-1.6,-1l-0.5,-2.9l-1.5,-2.6l-3.4,-5.8l-1.3,-3.1l-1.5,-4.7l-1.6,-5.3l-3.2,-4.4l-0.5,-2.9l0.8,-3.9l1.1,0l2.1,-1.6l1.1,-3.6l-1,-2.7l-2.7,-0.5l-1.9,-2.6l-2.1,-3.7l-0.2,-8.2l0.6,-1.9l0.6,-2.3l0.5,-2.4l-5.7,-6.3l0,-2.1l0.3,-0.5l0.3,-3.2l-1.3,-4l-2.3,-4.8l-2.7,-4.5l-1.8,-3.9l1,-3.7l0.6,-5.8l1.8,-3.1l0.3,-6.5l-1.1,-3.6l-1.6,-4.2l-2.7,-4.2l0.8,-3.2l1.5,-4.2l1.8,-0.8l0.3,-1.1l3.1,-2.6l5.2,-11.8l0.2,-7.4l1.69,-4.9l38.69,11.8l25.6,6.6l-8,31.3l-8.67,33.1l12.63,19.2l42.16,62.3l17.1,26.1l-0.4,3.1l2.8,5.2l1.1,5.4l1,1.5l0.7,0.6l-0.2,1.4l-1.4,1l-3.4,1.6l-1.9,2.1l-1.7,3.9l-0.5,4.7l-2.6,2.5l-2.3,1.1l-0.1,6.2l-0.6,1.9l1,1.7l3,0.3l-0.4,1.6l-1.4,2l-3.9,0.6l-14.2,-0.9zm-73.9,-48.9l1.3,1.5l-0.2,1.3l-3.2,-0.1l-0.6,-1.2l-0.6,-1.5l3.3,0zm1.9,0l1.2,-0.6l3.6,2.1l3.1,1.2l-0.9,0.6l-4.5,-0.2l-1.6,-1.6l-0.9,-1.5zm20.7,19.8l1.8,2.3l0.8,1l1.5,0.6l0.6,-1.5l-1,-1.8l-2.7,-2l-1.1,0.2l0,1.2l0.1,0zm-1.4,8.7l1.8,3.2l1.2,1.9l-1.5,0.2l-1.3,-1.2s-0.7,-1.5 -0.7,-1.9l0,-2.2l0.5,0z"
         id="CA" />
      <path
         d="m380.2,235.5l-36,-3.5l-79.1,-8.6l-2.2,22.1l-7,50.4l-1.9,13.7l34,3.9l37.5,4.4l34.7,3l14.3,0.6l5.7,-86z"
         id="CO" />
      <path
         d="m852,190.9l3.6,-3.2l1.9,-2.1l0.8,0.6l2.7,-1.5l5.2,-1.1l7,-3.5l-0.6,-4.2l-0.8,-4.4l-1.6,-6l-4.3,1.1l-21.8,4.7l0.6,3.1l1.5,7.3l0,8.3l-0.9,2.1l1.7,2.2l5,-3.4z"
         id="CT" />
      <path
         d="m834.4,247.2l-1,0.5l-3.6,-2.4l-1.8,-4.7l-1.9,-3.6l-2.3,-1l-2.1,-3.6l0.5,-2l0.5,-2.3l0.1,-1.1l-0.6,0.1l-1.7,1l-2,1.7l-0.2,0.3l1.4,4.1l2.3,5.6l3.7,16.1l5,-0.3l6,-1.1l-2.3,-7.3z"
         id="DE" />
      <path
         d="m750.2,445.2l-5.2,-0.7l-0.7,0.8l1.5,4.4l-0.4,5.2l-4.1,-1l-0.2,-2.8l-4.1,0l-5.3,0.7l-32.4,1.9l-8.2,-0.3l-1.7,-1.7l-2.5,-4.2l-5.9,0l-6.6,0.5l-35.4,4.2l-0.3,2.8l1.6,1.6l2.9,2l0.3,8.4l3.3,-0.6l6,-2.1l6,-0.5l4.4,-0.6l7.6,1.8l8.1,3.9l1.6,1.5l2.9,1.1l1.6,1.9l0.3,2.7l3.2,-1.3l3.9,0l3.6,-1.9l3.7,-3.6l3.1,0.2l0.5,-1.1l-0.8,-1l0.2,-1.9l4,-0.8l2.6,0l2.9,1.5l4.2,1.5l2.4,3.7l2.7,1l1.1,3.4l3.4,1.6l1.6,2.6l1.9,0.6l5.2,1.3l1.3,3.1l3,3.7l0,9.5l-1.5,4.7l0.3,2.7l1.3,4.8l1.8,4l0.8,-0.5l1.5,-4.5l-2.6,-1l-0.3,-0.6l1.6,-0.6l4.5,1l0.2,1.6l-3.2,5.5l-2.1,2.4l3.6,3.7l2.6,3.1l2.9,5.3l2.9,3.9l2.1,5l1.8,0.3l1.6,-2.1l1.8,1.1l2.6,4l0.6,3.6l3.1,4.4l0.8,-1.3l3.9,0.3l3.6,2.3l3.4,5.2l0.8,3.4l0.3,2.9l1.1,1l1.3,0.5l2.4,-1l1.5,-1.6l3.9,-0.2l3.1,-1.5l2.7,-3.2l-0.5,-1.9l-0.3,-2.4l0.6,-1.9l-0.3,-1.9l2.4,-1.3l0.3,-3.4l-0.6,-1.8l-0.5,-12l-1.3,-7.6l-4.5,-8.2l-3.6,-5.8l-2.6,-5.3l-2.9,-2.9l-2.9,-7.4l0.7,-1.4l1.1,-1.3l-1.6,-2.9l-4,-3.7l-4.8,-5.5l-3.7,-6.3l-5.3,-9.4l-3.7,-9.7l-2.3,-7.3l-5.2,-0.3zm17.7,132.7l2.4,-0.6l1.3,-0.2l1.5,-2.3l2.3,-1.6l1.3,0.5l1.7,0.3l0.4,1.1l-3.5,1.2l-4.2,1.5l-2.3,1.2l-0.9,-1.1zm13.5,-5l1.2,1.1l2.7,-2.1l5.3,-4.2l3.7,-3.9l2.5,-6.6l1,-1.7l0.2,-3.4l-0.7,0.5l-1,2.8l-1.5,4.6l-3.2,5.3l-4.4,4.2l-3.4,1.9l-2.4,1.5z"
         id="FL" />
      <path
         d="m750.2,444.2l-5.6,-0.7l-1.4,1.6l1.6,4.7l-0.3,3.9l-2.2,-0.6l-0.2,-3l-5.2,0l-5.3,0.7l-32.3,1.9l-7.7,-0.3l-1.4,-1.2l-2.5,-4.3l-0.8,-3.3l-1.6,-0.9l-0.5,-0.5l0.9,-2.2l-0.4,-5.5l-1.6,-4.5l0.8,-4.9l1.7,-4.8l-0.2,-2.5l-1.9,-0.7l-0.4,-3.2l-2.8,-3.5l-1.9,-6.2l-1.5,-7l-1.7,-4.8l-3.8,-16l-3.5,-8l-0.8,-5.3l0.1,-2.3l3.3,-0.3l13.6,-1.6l18.6,-2l6.3,-1.1l0.5,1.4l-2.2,0.9l-0.9,2.2l0.4,2l1.4,1.6l4.3,2.7l3.2,-0.1l3.2,4.7l0.6,1.6l2.3,2.8l0.5,1.7l4.7,1.8l3,2.2l2.3,3l2.3,1.3l2,1.8l1.4,2.7l2.1,1.9l4.1,1.8l2.7,6l1.7,5.1l2.8,0.7l2.1,1.9l2,5.7l2.9,1.6l1.7,-0.8l0.4,1.2l-3.3,6.2l0.5,2.6l-1.5,4.2l-2.3,10l0.8,6.3l-5.1,-0.3z"
         id="GA" />
      <path
         d="m556.8,183.6l2.1,2.1l0.3,0.7l-2,3l0.3,4l2.6,4.1l3.1,1.6l2.4,0.3l0.9,1.8l0.2,2.4l2.5,1l0.9,1.1l0.5,1.6l3.8,3.3l0.6,1.9l-0.7,3l-1.7,3.7l-0.6,2.4l-2.1,1.6l-1.6,0.5l-5.7,1.5l-1.6,4.8l0.8,1.8l1.7,1.5l-0.2,3.5l-1.9,1.4l-0.7,1.8l0,2.4l-1.4,0.4l-1.7,1.4l-0.5,1.7l0.4,1.7l-1.3,1l-2.3,-2.7l-1.4,-2.8l-8.3,0.8l-10,0.6l-49.2,1.2l-1.6,-4.3l-0.4,-6.7l-1.4,-4.2l-0.7,-5.2l-2.2,-3.7l-1,-4.6l-2.7,-7.8l-1.1,-5.6l-1.4,-1.9l-1.3,-2.9l1.7,-3.8l1.2,-6.1l-2.7,-2.2l-0.3,-2.4l0.7,-2.4l1.8,-0.3l61.1,-0.6l21.2,-0.7l0.9,3.3z"
         id="IA" />
      <path
         d="m175.3,27.63l-4.8,17.41l-4.5,20.86l-3.4,16.22l-0.4,9.67l1.2,4.44l3.5,2.66l-0.2,3.91l-3.9,4.4l-4.5,6.6l-0.9,2.9l-1.2,1.1l-1.8,0.8l-4.3,5.3l-0.4,3.1l-0.4,1.1l0.6,1l2.6,-0.1l1.1,2.3l-2.4,5.8l-1.2,4.2l-8.8,35.3l20.7,4.5l39.5,7.9l34.8,6.1l4.9,-29.2l3.8,-24.1l-2.7,-2.4l-0.4,-2.6l-0.8,-1.1l-2.1,1l-0.7,2.6l-3.2,0.5l-3.9,-1.6l-3.8,0.1l-2.5,0.7l-3.4,-1.5l-2.4,0.2l-2.4,2l-2,-1.1l-0.7,-4l0.7,-2.9l-2.5,-2.9l-3.3,-2.6l-2.7,-13.1l-0.1,-4.7l-0.3,-0.1l-0.2,0.4l-5.1,3.5l-1.7,-0.2l-2.9,-3.4l-0.2,-3.1l7,-17.13l-0.4,-1.94l-3.4,-1.15l-0.6,-1.18l-2.6,-3.46l-4.6,-10.23l-3.2,-1.53l-2,-4.95l1.3,-4.63l-3.2,-7.58l4.4,-21.52l-13,-2.57z"
         id="ID" />
      <path
         d="m618.7,214.3l-0.8,-2.6l-1.3,-3.7l-1.6,-1.8l-1.5,-2.6l-0.4,-5.5l-15.9,1.8l-17.4,1l-12.3,0l0.2,2.1l2.2,0.9l1.1,1.4l0.4,1.4l3.9,3.4l0.7,2.4l-0.7,3.3l-1.7,3.7l-0.8,2.7l-2.4,1.9l-1.9,0.6l-5.2,1.3l-1.3,4.1l0.6,1.1l1.9,1.8l-0.2,4.3l-2.1,1.6l-0.5,1.3l0,2.8l-1.8,0.6l-1.4,1.2l-0.4,1.2l0.4,2l-1.6,1.3l-0.9,2.8l0.3,3.9l2.3,7l7,7.6l5.7,3.7l0,4.4l0.7,1.2l6.6,0.6l2.7,1.4l-0.7,3.5l-2.2,6.2l-0.8,3l2,3.7l6.4,5.3l4.8,0.8l2.2,5.1l2,3.4l-0.9,2.8l1.5,3.8l1.7,2.1l1.6,-0.3l1,-2.2l2.4,-1.7l2.8,-1l6.1,2.5l0.5,-0.2l0,-1.1l-1.2,-2.7l0.4,-2.8l2.4,-1.6l3.4,-1.2l-0.5,-1.3l-0.8,-2l1.2,-1.3l1,-2.7l0,-4l0.4,-4.9l2.5,-3l1.8,-3.8l2.5,-4l-0.5,-5.3l-1.8,-3.2l-0.3,-3.3l0.8,-5.3l-0.7,-7.2l-1.1,-15.8l-1.4,-15.3l-0.9,-11.7l-0.2,-0.9z"
         id="IL" />
      <path
         d="m622.9,216.1l1.5,1l1.1,-0.3l2.1,-1.9l2.5,-1.8l14.3,-1.1l18.4,-1.8l1.6,15.5l4.9,42.6l-0.6,2.9l1.3,1.6l0.2,1.3l-2.3,1.6l-3.6,1.7l-3.2,0.4l-0.5,4.8l-4.7,3.6l-2.9,4l0.2,2.4l-0.5,1.4l-3.5,0l-1.4,-1.7l-5.2,3l0.2,3.1l-0.9,0.2l-0.5,-0.9l-2.4,-1.7l-3.6,1.5l-1.4,2.9l-1.2,-0.6l-1.6,-1.8l-4.4,0.5l-5.7,1l-2.5,1.3l0,-2.6l0.4,-4.7l2.3,-2.9l1.8,-3.9l2.7,-4.2l-0.5,-5.8l-1.8,-3.1l-0.3,-3.2l0.8,-5.3l-0.7,-7.1l-0.9,-12.6l-2.5,-30.1l3,0.8z"
         id="IN" />
      <path
         d="m485.9,259.5l-43.8,-0.6l-40.6,-1.2l-21.7,-0.9l-4.3,64.8l24.3,1l44.7,2.1l46.3,0.6l12.6,-0.3l0.7,-35l-1.2,-11.1l-2.5,-2l-2.4,-3l-2.3,-3.6l0.6,-3l1.7,-1.4l0,-2.1l-0.8,-0.7l-2.6,-0.2l-3.5,-3.4l-5.2,0z"
         id="KS" />
      <path
         d="m607.2,331.8l12.6,-0.7l0.1,-4.1l4.3,0l30.4,-3.2l45.1,-4.3l5.6,-3.6l3.9,-2.1l0.1,-1.9l6,-7.8l4.1,-3.6l2.1,-2.4l-3.3,-2l-2.5,-2.7l-3,-3.8l-0.5,-2.2l-2.6,-1.4l-0.9,-1.9l-0.2,-6.1l-2.6,-2l-1.9,-1.1l-0.5,-2.3l-1.3,0.2l-2,1.2l-2.5,2.7l-1.9,-1.7l-2.5,-0.5l-2.4,1.4l-2.3,0l-1.8,-2l-5.6,-0.1l-1.8,-4.5l-2.9,-1.5l-2.1,0.8l-4.2,0.2l-0.5,2.1l1.2,1.5l0.3,2.1l-2.8,2l-3.8,1.8l-2.6,0.4l-0.5,4.5l-4.9,3.6l-2.6,3.7l0.2,2.2l-0.9,2.3l-4.5,-0.1l-1.3,-1.3l-3.9,2.2l0.2,3.3l-2.4,0.6l-0.8,-1.4l-1.7,-1.2l-2.7,1.1l-1.8,3.5l-2.2,-1l-1.4,-1.6l-3.7,0.4l-5.6,1l-2.8,1.3l-1.2,3.4l-1,1l1.5,3.7l-4.2,1.4l-1.9,1.4l-0.4,2.2l1.2,2.4l0,2.2l-1.6,0.4l-6.1,-2.5l-2.3,0.9l-2,1.4l-0.8,1.8l1.7,2.4l-0.9,1.8l-0.1,3.3l-2.4,1.3l-2.1,1.7l11.1,-0.2z"
         id="KY" />
      <path
         d="m526.9,485.9l8.1,-0.3l10.3,3.6l6.5,1.1l3.7,-1.5l3.2,1.1l3.2,1l0.8,-2.1l-3.2,-1.1l-2.6,0.5l-2.7,-1.6l0.8,-1.5l3.1,-1l1.8,1.5l1.8,-1l3.2,0.6l1.5,2.4l0.3,2.3l4.5,0.3l1.8,1.8l-0.8,1.6l-1.3,0.8l1.6,1.6l8.4,3.6l3.6,-1.3l1,-2.4l2.6,-0.6l1.8,-1.5l1.3,1l0.8,2.9l-2.3,0.8l0.6,0.6l3.4,-1.3l2.3,-3.4l0.8,-0.5l-2.1,-0.3l0.8,-1.6l-0.2,-1.5l2.1,-0.5l1.1,-1.3l0.6,0.8l0.6,3.1l4.2,0.6l4,1.9l1,1.5l2.9,0l1.1,1l2.3,-3.1l0,-1.5l-1.3,0l-3.4,-2.7l-5.8,-0.8l-3.2,-2.3l1.1,-2.7l2.3,0.3l0.2,-0.6l-1.8,-1l0,-0.5l3.2,0l1.8,-3.1l-1.3,-1.9l-0.3,-2.7l-1.5,0.2l-1.9,2.1l-0.6,2.6l-3.1,-0.6l-1,-1.8l1.8,-1.9l1.9,-1.7l-2.2,-6.5l-3.4,-3.4l1,-7.3l-0.2,-0.5l-1.3,0.2l-33.1,1.4l-0.8,-2.4l0.8,-8.5l8.6,-14.8l-0.9,-2.6l1.4,-0.4l0.4,-2l-2.2,-2l0.1,-1.9l-2,-4.5l-0.4,-5.1l0.1,-0.7l-26.4,0.8l-25.2,0.1l0.4,9.7l0.7,9.5l0.5,3.7l2.6,4.5l0.9,4.4l4.3,6l0.3,3.1l0.6,0.8l-0.7,8.3l-2.8,4.6l1.2,2.4l-0.5,2.6l-0.8,7.3l-1.3,3l0.2,3.7l4.7,-1.5z"
         id="LA" />
      <path
         d="m887.5,172.5l-0.5,-2.3l0.8,-1.5l2.9,-1.5l0.8,3.1l-0.5,1.8l-2.4,1.5l0,1l1.9,-1.5l3.9,-4.5l3.9,-1.9l4.2,-1.5l-0.3,-2.4l-1,-2.9l-1.9,-2.4l-1.8,-0.8l-2.1,0.2l-0.5,0.5l1,1.3l1.5,-0.8l2.1,1.6l0.8,2.7l-1.8,1.8l-2.3,1l-3.6,-0.5l-3.9,-6l-2.3,-2.6l-1.8,0l-1.1,0.8l-1.9,-2.6l0.3,-1.5l2.4,-5.2l-2.9,-4.4l-3.7,1.8l-1.8,2.9l-18.3,4.7l-13.8,2.5l-0.6,10.6l0.7,4.9l22,-4.8l11.2,-2.8l2,1.6l3.4,4.3l2.9,4.7l2.1,-0.9zm12.5,1.4l2.2,-0.7l0.5,-1.7l1,0.1l1,2.3l-1.3,0.5l-3.9,0.1l0.5,-0.6zm-9.4,0.8l2.3,-2.6l1.6,0l1.8,1.5l-2.4,1l-2.2,1l-1.1,-0.9z"
         id="MA" />
      <path
         d="m834.8,264.1l1.7,-3.8l0.5,-4.8l-6.3,1.1l-5.8,0.3l-3.8,-16.8l-2.3,-5.5l-1.5,-4.6l-22.2,4.3l-37.6,7.6l2,10.4l4.8,-4.9l2.5,-0.7l1.4,-1.5l1.8,-2.7l1.6,0.7l2.6,-0.2l2.6,-2.1l2,-1.5l2.1,-0.6l1.5,1.1l2.7,1.4l1.9,1.8l1.3,1.4l4.8,1.6l-0.6,2.9l5.8,2.1l2.1,-2.6l3.7,2.5l-2.1,3.3l-0.7,3.3l-1.8,2.6l0,2.1l0.3,0.8l2,1.3l3.4,1.1l4.3,-0.1l3.1,1l2.1,0.3l1,-2.1l-1.5,-2.1l0,-1.8l-2.4,-2.1l-2.1,-5.5l1.3,-5.3l-0.2,-2.1l-1.3,-1.3s1.5,-1.6 1.5,-2.3c0,-0.6 0.5,-2.1 0.5,-2.1l1.9,-1.3l1.9,-1.6l0.5,1l-1.5,1.6l-1.3,3.7l0.3,1.1l1.8,0.3l0.5,5.5l-2.1,1l0.3,3.6l0.5,-0.2l1.1,-1.9l1.6,1.8l-1.6,1.3l-0.3,3.4l2.6,3.4l3.9,0.5l1.6,-0.8l3.2,4.2l1,0.4l7.4,-2.9zm-14.5,0.2l1.1,2.5l0.2,1.8l1.1,1.9s0.9,-0.9 0.9,-1.2c0,-0.3 -0.7,-3.1 -0.7,-3.1l-0.7,-2.3l-1.9,0.4z"
         id="MD" />
      <path
         d="m865.8,91.9l1.5,0.4l0,-2.6l0.8,-5.5l2.6,-4.7l1.5,-4l-1.9,-2.4l0,-6l0.8,-1l0.8,-2.7l-0.2,-1.5l-0.2,-4.8l1.8,-4.8l2.9,-8.9l2.1,-4.2l1.3,0l1.3,0.2l0,1.1l1.3,2.3l2.7,0.6l0.8,-0.8l0,-1l4,-2.9l1.8,-1.8l1.5,0.2l6,2.4l1.9,1l9.1,29.9l6,0l0.8,1.9l0.2,4.8l2.9,2.3l0.8,0l0.2,-0.5l-0.5,-1.1l2.8,-0.5l1.9,2.1l2.3,3.7l0,1.9l-2.1,4.7l-1.9,0.6l-3.4,3.1l-4.8,5.5l-1.3,0c-0.6,0 -1,-2.1 -1,-2.1l-1.8,0.2l-1,1.5l-2.4,1.5l-1,1.5l1.6,1.5l-0.5,0.6l-0.5,2.7l-1.9,-0.2l0,-1.6l-0.3,-1.3l-1.5,0.3l-1.8,-3.2l-2.1,1.3l1.3,1.5l0.3,1.1l-0.8,1.3l0.3,3.1l0.2,1.6l-1.6,2.6l-2.9,0.5l-0.3,2.9l-5.3,3.1l-1.3,0.5l-1.6,-1.5l-3.1,3.6l1,3.2l-1.5,1.3l-0.2,4.4l-1.1,6.3l-2.2,-0.9l-0.5,-3.1l-4,-1.1l-0.2,-2.5l-11.7,-37.43l1.3,-0.17zm36.5,15.6l1.5,-1.5l1.4,1.1l0.6,2.4l-1.7,0.9l-1.8,-2.9zm6.7,-5.9l1.8,1.9s1.3,0.1 1.3,-0.2c0,-0.3 0.2,-2 0.2,-2l0.9,-0.8l-0.8,-1.8l-2,0.7l-1.4,2.2z"
         id="ME" />
      <path
         d="m644.5,211l19.1,-1.9l0.2,1.1l9.9,-1.5l12,-1.7l0.1,-0.6l0.2,-1.5l2.1,-3.7l2,-1.7l-0.2,-5.1l1.6,-1.6l1.1,-0.3l0.2,-3.6l1.5,-3l1.1,0.6l0.2,0.6l0.8,0.2l1.9,-1l-0.4,-9.1l-3.2,-8.2l-2.3,-9.1l-2.4,-3.2l-2.6,-1.8l-1.6,1.1l-3.9,1.8l-1.9,5l-2.7,3.7l-1.1,0.6l-1.5,-0.6s-2.6,-1.5 -2.4,-2.1c0.2,-0.6 0.5,-5 0.5,-5l3.4,-1.3l0.8,-3.4l0.6,-2.6l2.4,-1.6l-0.3,-10l-1.6,-2.3l-1.3,-0.8l-0.8,-2.1l0.8,-0.8l1.6,0.3l0.2,-1.6l-2.6,-2.2l-1.3,-2.6l-2.6,0l-4.5,-1.5l-5.5,-3.4l-2.7,0l-0.6,0.6l-1,-0.5l-3.1,-2.3l-2.9,1.8l-2.9,2.3l0.3,3.6l1,0.3l2.1,0.5l0.5,0.8l-2.6,0.8l-2.6,0.3l-1.5,1.8l-0.3,2.1l0.3,1.6l0.3,5.5l-3.6,2.1l-0.6,-0.2l0,-4.2l1.3,-2.4l0.6,-2.4l-0.8,-0.8l-1.9,0.8l-1,4.2l-2.7,1.1l-1.8,1.9l-0.2,1l0.6,0.8l-0.6,2.6l-2.3,0.5l0,1.1l0.8,2.4l-1.1,6.1l-1.6,4l0.6,4.7l0.5,1.1l-0.8,2.4l-0.3,0.8l-0.3,2.7l3.6,6l2.9,6.5l1.5,4.8l-0.8,4.7l-1,6l-2.4,5.2l-0.3,2.7l-3.2,3.1l13,-1zm-33.3,-72.4l-1.3,-1.1l-1.8,-10.4l-3.7,-1.3l-1.7,-2.3l-12.6,-2.8l-2.8,-1.1l-8.1,-2.2l-7.8,-1l-3.9,-5.3l0.7,-0.5l2.7,-0.8l3.6,-2.3l0,-1l0.6,-0.6l6,-1l2.4,-1.9l4.4,-2.1l0.2,-1.3l1.9,-2.9l1.8,-0.8l1.3,-1.8l2.3,-2.3l4.4,-2.4l4.7,-0.5l1.1,1.1l-0.3,1l-3.7,1l-1.5,3.1l-2.3,0.8l-0.5,2.4l-2.4,3.2l-0.3,2.6l0.8,0.5l1,-1.1l3.6,-2.9l1.3,1.3l2.3,0l3.2,1l1.5,1.1l1.5,3.1l2.7,2.7l3.9,-0.2l1.5,-1l1.6,1.3l1.6,0.5l1.3,-0.8l1.1,0l1.6,-1l4,-3.6l3.4,-1.1l6.6,-0.3l4.5,-1.9l2.6,-1.3l1.5,0.2l0,5.7l0.5,0.3l2.9,0.8l1.9,-0.5l6.1,-1.6l1.1,-1.1l1.5,0.5l0,7l3.2,3.1l1.3,0.6l1.3,1l-1.3,0.3l-0.8,-0.3l-3.7,-0.5l-2.1,0.6l-2.3,-0.2l-3.2,1.5l-1.8,0l-5.8,-1.3l-5.2,0.2l-1.9,2.6l-7,0.6l-2.4,0.8l-1.1,3.1l-1.3,1.1l-0.5,-0.2l-1.5,-1.6l-4.5,2.4l-0.6,0l-1.1,-1.6l-0.8,0.2l-1.9,4.4l-1,4l-3.2,6.9l-1.3,-0.8zm-29.6,-56.5l1.8,-2.1l2.2,-0.8l5.4,-3.9l2.3,-0.6l0.5,0.5l-5.1,5.1l-3.3,1.9l-2.1,0.9l-1.7,-1zm86.2,32.1l0.6,2.5l3.2,0.2l1.3,-1.2s-0.1,-1.5 -0.4,-1.6c-0.3,-0.2 -1.6,-1.9 -1.6,-1.9l-2.2,0.2l-1.6,0.2l-0.3,1.1l1,0.5z"
         id="MI" />
      <path
         d="m464.6,66.79l-0.6,3.91l0,10.27l1.6,5.03l1.9,3.32l0.5,9.93l1.8,13.45l1.8,7.3l0.4,6.4l0,5.3l-1.6,1.8l-1.8,1.3l0,1.5l0.9,1.7l4.1,3.5l0.7,3.2l0,35.9l60.3,-0.6l21.2,-0.7l-0.5,-6l-1.8,-2.1l-7.2,-4.6l-3.6,-5.3l-3.4,-0.9l-2,-2.8l-3.2,0l-3.5,-3.8l-0.5,-7l0.1,-3.9l1.5,-3l-0.7,-2.7l-2.8,-3.1l2.2,-6.1l5.4,-4l1.2,-1.4l-0.2,-8l0.2,-3l2.6,-3l3.8,-2.9l1.3,-0.2l4.5,-5l1.8,-0.8l2.3,-3.9l2.4,-3.6l3.1,-2.6l4.8,-2l9.2,-4.1l3.9,-1.8l0.6,-2.3l-4.4,0.4l-0.7,1.1l-0.6,0l-1.8,-3.1l-8.9,0.3l-1,0.8l-1,0l-0.5,-1.3l-0.8,-1.8l-2.6,0.5l-3.2,3.2l-1.6,0.8l-3.1,0l-2.6,-1l0,-2.1l-1.3,-0.2l-0.5,0.5l-2.6,-1.3l-0.5,-2.9l-1.5,0.5l-0.5,1l-2.4,-0.5l-5.3,-2.4l-3.9,-2.6l-2.9,0l-1.3,-1l-2.3,0.6l-1.1,1.1l-0.3,1.3l-4.8,0l0,-2.1l-6.3,-0.3l-0.3,-1.5l-4.8,0l-1.6,-1.6l-1.5,-6.1l-0.8,-5.5l-1.9,-0.8l-2.3,-0.5l-0.6,0.2l-0.3,8.2l-30.1,-0.03l1.8,5.52z"
         id="MN" />
      <path
         d="m593.1,338.7l0.5,-5.9l4.2,-3.4l1.9,-1l0,-2.9l0.7,-1.6l-1.1,-1.6l-2.4,0.3l-2.1,-2.5l-1.7,-4.5l0.9,-2.6l-2,-3.2l-1.8,-4.6l-4.6,-0.7l-6.8,-5.6l-2.2,-4.2l0.8,-3.3l2.2,-6l0.6,-3l-1.9,-1l-6.9,-0.6l-1.1,-1.9l0,-4.1l-5.3,-3.5l-7.2,-7.8l-2.3,-7.3l-0.5,-4.2l0.7,-2.4l-2.6,-3.1l-1.2,-2.4l-7.7,0.8l-10,0.6l-48.8,1.2l1.3,2.6l-0.1,2.2l2.3,3.6l3,3.9l3.1,3l2.6,0.2l1.4,1.1l0,2.9l-1.8,1.6l-0.5,2.3l2.1,3.2l2.4,3l2.6,2.1l1.3,11.6l-0.8,40l0.5,5.7l23.7,-0.2l23.3,-0.7l32.5,-1.3l2.2,3.7l-0.8,3.1l-3.1,2.5l-0.5,1.8l5.2,0.5l4.1,-1.1l1.7,-5.3z"
         id="MO" />
      <path
         d="m604.3,472.5l2.6,-4.2l1.8,0.8l6.8,-1.9l2.1,0.3l1.5,0.8l5.2,0l0.4,-1.6l-1.7,-14.8l-2.8,-19l1,-45.1l-0.2,-16.7l0.2,-6.3l-4.8,0.3l-19.6,1.6l-13,0.4l-0.2,3.2l-2.8,1.3l-2.6,5.1l0.5,1.6l0.1,2.4l-2.9,1.1l-3.5,5.1l0.8,2.3l-3,2.5l-1,5.7l-0.6,1.9l1.6,2.5l-1.5,1.4l1.5,2.8l0.3,4.2l-1.2,2.5l-0.2,0.9l0.4,5l2,4.5l-0.1,1.7l2.3,2l-0.7,3.1l-0.9,0.3l0.6,1.9l-8.6,15l-0.8,8.2l0.5,1.5l24.2,-0.7l8.2,-0.7l1.9,-0.3l0.6,1.4l-1,7.1l3.3,3.3l2.2,6.4l1.1,-0.8z"
         id="MS" />
      <path
         d="m361.1,70.77l-5.3,57.13l-1.3,15.2l-59.1,-6.6l-49,-7.1l-1.4,11.2l-1.9,-1.7l-0.4,-2.5l-1.3,-1.9l-3.3,1.5l-0.7,2.5l-2.3,0.3l-3.8,-1.6l-4.1,0.1l-2.4,0.7l-3.2,-1.5l-3,0.2l-2.1,1.9l-0.9,-0.6l-0.7,-3.4l0.7,-3.2l-2.7,-3.2l-3.3,-2.5l-2.5,-12.6l-0.1,-5.3l-1.6,-0.8l-0.6,1l-4.5,3.2l-1.2,-0.1l-2.3,-2.8l-0.2,-2.8l7,-17.15l-0.6,-2.67l-3.5,-1.12l-0.4,-0.91l-2.7,-3.5l-4.6,-10.41l-3.2,-1.58l-1.8,-4.26l1.3,-4.63l-3.2,-7.57l4.4,-21.29l32.7,6.89l18.4,3.4l32.3,5.3l29.3,4l29.2,3.5l30.8,3.07l-0.9,14.2z"
         id="MT" />
      <path
         d="m786.7,357.7l-12.7,-7.7l-3.1,-0.8l-16.6,2.1l-1.6,-3l-2.8,-2.2l-16.7,0.5l-7.4,0.9l-9.2,4.5l-6.8,2.7l-6.5,1.2l-13.4,1.4l0.1,-4.1l1.7,-1.3l2.7,-0.7l0.7,-3.8l3.9,-2.5l3.9,-1.5l4.5,-3.7l4.4,-2.3l0.7,-3.2l4.1,-3.8l0.7,1l2.5,0.2l2.4,-3.6l1.7,-0.4l2.6,0.3l1.8,-4l2.5,-2.4l0.5,-1.8l0.1,-3.5l4.4,0.1l38.5,-5.6l57.5,-12.3l2,4.8l3.6,6.5l2.4,2.4l0.6,2.3l-2.4,0.2l0.8,0.6l-0.3,4.2l-2.6,1.3l-0.6,2.1l-1.3,2.9l-3.7,1.6l-2.4,-0.3l-1.5,-0.2l-1.6,-1.3l0.3,1.3l0,1l1.9,0l0.8,1.3l-1.9,6.3l4.2,0l0.6,1.6l2.3,-2.3l1.3,-0.5l-1.9,3.6l-3.1,4.8l-1.3,0l-1.1,-0.5l-2.7,0.6l-5.2,2.4l-6.5,5.3l-3.4,4.7l-1.9,6.5l-0.5,2.4l-4.7,0.5l-5.1,1.5l-10.2,-8.3zm49.3,-26.2l2.6,-2.5l3.2,-2.6l1.5,-0.6l0.2,-2l-0.6,-6.1l-1.5,-2.3l-0.6,-1.9l0.7,-0.2l2.7,5.5l0.4,4.4l-0.2,3.4l-3.4,1.5l-2.8,2.4l-1.1,1.2l-1.1,-0.2z"
         id="NC" />
      <path
         d="m471,126.4l-0.4,-6.2l-1.8,-7.3l-1.8,-13.61l-0.5,-9.7l-1.9,-3.18l-1.6,-5.32l0,-10.41l0.6,-3.85l-1.8,-5.54l-28.6,-0.59l-18.6,-0.6l-26.5,-1.3l-25.2,-2.16l-0.9,14.42l-4.7,50.94l56.8,3.9l56.9,1.7l0,-1.2z"
         id="ND" />
      <path
         d="m470.3,204.3l-1,-2.3l-0.5,-1.6l-2.9,-1.6l-4.8,-1.5l-2.2,-1.2l-2.6,0.1l-3.7,0.4l-4.2,1.2l-6,-4.1l-2.2,-2l-10.7,0.6l-41.5,-2.4l-35.6,-2.2l-4.3,43.7l33.1,3.3l-1.4,21.1l21.7,1l40.6,1.2l43.8,0.6l4.5,0l-2.2,-3l-2.6,-3.9l0.1,-2.3l-1.4,-2.7l-1.9,-5.2l-0.4,-6.7l-1.4,-4.1l-0.5,-5l-2.3,-3.7l-1,-4.7l-2.8,-7.9l-1,-5.3l-2.7,0.2z"
         id="NE" />
      <path
         d="m881.7,141.3l1.1,-3.2l-2.7,-1.2l-0.5,-3.1l-4.1,-1.1l-0.3,-3l-11.7,-37.48l-0.7,0.08l-0.6,1.6l-0.6,-0.5l-1,-1l-1.5,1.9l-0.2,2.29l0.5,8.41l1.9,2.8l0,4.3l-3.9,4.8l-2.4,0.9l0,0.7l1.1,1.9l0,8.6l-0.8,9.2l-0.2,4.7l1,1.4l-0.2,4.7l-0.5,1.5l1,1.1l5.1,-1.2l13.8,-3.5l1.7,-2.9l4,-1.9l0.7,-0.8z"
         id="NH" />
      <path
         d="m823.7,228.3l0.1,-1.5l2.7,-1.3l1.7,-2.8l1.7,-2.4l3.3,-3.2l0,-1.2l-6.1,-4.1l-1,-2.7l-2.7,-0.3l-0.1,-0.9l-0.7,-2.2l2.2,-1.1l0.2,-2.9l-1.3,-1.3l0.2,-1.2l1.9,-3.1l0,-3.1l2.5,-3.1l5.6,2.5l6.4,1.9l2.5,1.2l0.1,1.8l-0.5,2.7l0.4,4.5l-2.1,1.9l-1.1,1l0.5,0.5l2.7,-0.3l1.1,-0.8l1.6,3.4l0.2,9.4l0.6,1.1l-1.1,5.5l-3.1,6.5l-2.7,4l-0.8,4.8l-2.1,2.4l-0.8,0l-0.3,-2.7l0.8,-1l-0.2,-1.5l-4,-0.6l-4.8,-2.3l-3.2,-2.9l-1,-2l0.7,-2.6z"
         id="NJ" />
      <path
         d="m270.2,429.4l-16.7,-2.6l-1.2,9.6l-15.8,-2l6,-39.7l7,-53.2l4.4,-30.9l34,3.9l37.4,4.4l32,2.8l-0.3,10.8l-1.4,-0.1l-7.4,97.7l-28.4,-1.8l-38.1,-3.7l0.7,6.3l-12.2,-1.5z"
         id="NM" />
      <path
         d="m123.1,173.6l38.7,8.5l26,5.2l-10.6,53.1l-5.4,29.8l-3.3,15.5l-2.1,11.1l-2.6,16.4l-1.7,3.1l-1.6,-0.1l-1.2,-2.6l-2.8,-0.5l-1.3,-1.1l-1.8,0.1l-0.9,0.8l-1.8,1.3l-0.3,7.3l-0.3,1.5l-0.5,12.4l-1.1,1.8l-16.7,-25.5l-42.1,-62.1l-12.43,-19l8.55,-32.6l8.01,-31.3l29.27,6.9z"
         id="NV" />
      <path
         d="m843.4,200l0.5,-2.7l-0.2,-2.4l-3,-1.5l-6.5,-2l-6,-2.6l-0.6,-0.4l-2.7,-0.3l-2,-1.5l-2.1,-5.9l-3.3,-0.5l-2.4,-2.4l-38.4,8.1l-31.6,6l-0.5,-6.5l1.6,-1.2l1.3,-1.1l1,-1.6l1.8,-1.1l1.9,-1.8l0.5,-1.6l2.1,-2.7l1.1,-1l-0.2,-1l-1.3,-3.1l-1.8,-0.2l-1.9,-6.1l2.9,-1.8l4.4,-1.5l4,-1.3l3.2,-0.5l6.3,-0.2l1.9,1.3l1.6,0.2l2.1,-1.3l2.6,-1.1l5.2,-0.5l2.1,-1.8l1.8,-3.2l1.6,-1.9l2.1,0l1.9,-1.1l0.2,-2.3l-1.5,-2.1l-0.3,-1.5l1.1,-2.1l0,-1.5l-1.8,0l-1.8,-0.8l-0.8,-1.1l-0.2,-2.6l5.8,-5.5l0.6,-0.8l1.5,-2.9l2.9,-4.5l2.7,-3.7l2.1,-2.4l2.4,-1.8l3.1,-1.2l5.5,-1.3l3.2,0.2l4.5,-1.5l7.4,-2.2l0.7,4.9l2.4,6.5l0.8,5l-1,4.2l2.6,4.5l0.8,2l-0.9,3.2l3.7,1.7l2.7,10.2l0,5.8l-0.6,10.9l0.8,5.4l0.7,3.6l1.5,7.3l0,8.1l-1.1,2.3l2.1,2.7l0.5,0.9l-1.9,1.8l0.3,1.3l1.3,-0.3l1.5,-1.3l2.3,-2.6l1.1,-0.6l1.6,0.6l2.3,0.2l7.9,-3.9l2.9,-2.7l1.3,-1.5l4.2,1.6l-3.4,3.6l-3.9,2.9l-7.1,5.3l-2.6,1l-5.8,1.9l-4,1.1l-1,-0.4l-0.3,-3.8z"
         id="NY" />
      <path
         d="m663.8,211.2l1.7,15.5l4.8,41.1l3.9,-0.2l2.3,-0.8l3.6,1.8l1.7,4.2l5.4,0.1l1.8,2l1.7,0l2.4,-1.4l3.1,0.5l1.5,1.3l1.8,-2l2.3,-1.4l2.4,-0.4l0.6,2.7l1.6,1l2.6,2l0.8,0.2l2,-0.1l1.2,-0.6l0,-2.1l1.7,-1.5l0.1,-4.8l1.1,-4.2l1.9,-1.3l1,0.7l1,1.1l0.7,0.2l0.4,-0.4l-0.9,-2.7l0,-2.2l1.1,-1.4l2.5,-3.6l1.3,-1.5l2.2,0.5l2.1,-1.5l3,-3.3l2.2,-3.7l0.2,-5.4l0.5,-5l0,-4.6l-1.2,-3.2l1.2,-1.8l1.3,-1.2l-0.6,-2.8l-4.3,-25.6l-6.2,3.7l-3.9,2.3l-3.4,3.7l-4,3.9l-3.2,0.8l-2.9,0.5l-5.5,2.6l-2.1,0.2l-3.4,-3.1l-5.2,0.6l-2.6,-1.5l-2.2,-1.3l-23.1,3.4z"
         id="OH" />
      <path
         d="m411.9,334.9l-1.8,24.3l-0.9,18l0.2,1.6l4,3.6l1.7,0.9l0.9,0l0.9,-2.1l1.5,1.9l1.6,0.1l0.3,-0.2l0.2,-1.1l2.8,1.4l-0.4,3.5l3.8,0.5l2.5,1l4.2,0.6l2.3,1.6l2.5,-1.7l3.5,0.7l2.2,3.1l1.2,0.1l0,2.3l2.1,0.7l2.5,-2.1l1.8,0.6l2.7,0.1l0.7,2.3l4.4,1.8l1.7,-0.3l1.9,-4.2l1.3,0l1.1,2.1l4.2,0.8l3.4,1.3l3,0.8l1.6,-0.7l0.7,-2.7l4.5,0l1.9,0.9l2.7,-1.9l1.4,0l0.6,1.4l3.6,0l2,-1.8l2.3,0.6l1.7,2.2l3,1.7l3.4,0.9l1.9,1.2l-0.3,-37.6l-1.4,-10.9l-0.1,-8.6l-1.5,-6.6l-0.6,-6.8l0.1,-4.3l-12.6,0.3l-46.3,-0.5l-44.7,-2.1l-41.5,-1.8l-0.4,10.7l54,2.4z"
         id="OK" />
      <path
         d="m67.44,158.9l28.24,7.2l27.52,6.5l17,3.7l8.8,-35.1l1.2,-4.4l2.4,-5.5l-0.7,-1.3l-2.5,0.1l-1.3,-1.8l0.6,-1.5l0.4,-3.3l4.7,-5.7l1.9,-0.9l0.9,-0.8l0.7,-2.7l0.8,-1.1l3.9,-5.7l3.7,-4l0.2,-3.26l-3.4,-2.49l-1.2,-4.55l-13.1,-3.83l-15.3,-3.47l-14.8,0.37l-1.1,-1.31l-5.1,1.84l-4.5,-0.48l-2.4,-1.58l-1.3,0.54l-4.68,-0.29l-1.96,-1.43l-4.84,-1.77l-1.1,-0.07l-4.45,-1.27l-1.76,1.52l-6.26,-0.24l-5.31,-3.85l0.21,-9.28l-2.05,-3.5l-4.1,-0.6l-0.7,-2.5l-2.4,-0.5l-5.8,2.1l-2.3,6.5l-3.2,10l-3.2,6.5l-5,14.1l-6.5,13.6l-8.1,12.6l-1.9,2.9l-0.8,8.6l-1.3,6l2.71,3.5l38.53,11.9z"
         id="OR" />
      <path
         d="m736.6,192.2l1.3,-0.5l5.7,-5.5l0.7,6.9l33.5,-6.5l36.9,-7.8l2.3,2.3l3.1,0.4l2,5.6l2.4,1.9l2.8,0.4l0.1,0.1l-2.6,3.2l0,3.1l-1.9,3.1l-0.2,1.9l1.3,1.3l-0.2,1.9l-2.4,1.1l1,3.4l0.2,1.1l2.8,0.3l0.9,2.5l5.9,3.9l0,0.4l-3.1,3l-1.5,2.2l-1.7,2.8l-2.7,1.2l-1.4,0.3l-2.1,1.3l-1.6,1.4l-22.4,4.3l-38.7,7.8l-11.3,1.4l-3.9,0.7l-5.1,-22.4l-4.3,-25.9l4.2,-2.6z"
         id="PA" />
      <path
         d="m873.6,175.7l-0.8,-4.4l-1.6,-6l5.7,-1.5l1.5,1.3l3.4,4.3l2.8,4.4l-2.8,1.4l-1.3,-0.2l-1.1,1.8l-2.4,1.9l-2.8,1.1l-0.6,-4.1z"
         id="RI" />
      <path
         d="m759,413.6l-2.1,-1l-1.9,-5.6l-2.5,-2.3l-2.5,-0.5l-1.5,-4.6l-3,-6.5l-4.2,-1.8l-1.9,-1.8l-1.2,-2.6l-2.4,-2l-2.3,-1.3l-2.2,-2.9l-3.2,-2.4l-4.4,-1.7l-0.4,-1.4l-2.3,-2.8l-0.5,-1.5l-3.8,-5.4l-3.4,0.1l-3.9,-2.5l-1.2,-1.2l-0.2,-1.4l0.6,-1.6l2.7,-1.3l-0.8,-2l6.4,-2.7l9.2,-4.5l7.1,-0.9l16.4,-0.5l2.3,1.9l1.8,3.5l4.6,-0.8l12.6,-1.5l2.7,0.8l12.5,7.4l10.1,8.3l-5.3,5.4l-2.6,6.1l-0.5,6.3l-1.6,0.8l-1.1,2.7l-2.4,0.6l-2.1,3.6l-2.7,2.7l-2.3,3.4l-1.6,0.8l-3.6,3.4l-2.9,0.2l1,3.2l-5,5.3l-2.3,1.6l-2.2,0.9z"
         id="SC" />
      <path
         d="m471,181.1l-0.9,3.2l0.4,3l2.6,2l-1.2,5.4l-1.8,4.1l1.5,3.3l0.7,1.1l-1.3,0.1l-0.7,-1.6l-0.6,-2l-3.3,-1.8l-4.8,-1.5l-2.5,-1.3l-2.9,0.1l-3.9,0.4l-3.8,1.2l-5.3,-3.8l-2.7,-2.4l-10.9,0.8l-41.5,-2.4l-35.6,-2.2l1.5,-24.8l2.8,-34l0.4,-5l56.9,3.9l56.9,1.7l0,2.7l-1.3,1.5l-2,1.5l-0.1,2.2l1.1,2.2l4.1,3.4l0.5,2.7l0,35.9l-2.3,0.4z"
         id="SD" />
      <path
         d="m670.8,359.6l-13.1,1.2l-23.3,2.2l-37.6,2.7l-11.8,0.4l0.9,-0.6l0.9,-4.5l-1.2,-3.6l3.9,-2.3l0.4,-2.5l1.2,-4.3l3,-9.5l0.5,-5.6l0.3,-0.2l12.3,-0.2l13.6,-0.8l0.1,-3.9l3.5,-0.1l30.4,-3.3l54,-5.2l10.3,-1.5l7.6,-0.2l2.4,-1.9l1.3,0.3l-0.1,3.3l-0.4,1.6l-2.4,2.2l-1.6,3.6l-2,-0.4l-2.4,0.9l-2.2,3.3l-1.4,-0.2l-0.8,-1.2l-1.1,0.4l-4.3,4l-0.8,3.1l-4.2,2.2l-4.3,3.6l-3.8,1.5l-4.4,2.8l-0.6,3.6l-2.5,0.5l-2,1.7l-0.2,4.8l-18.1,2.1z"
         id="TN" />
      <path
         d="m282.8,425.6l37,3.6l29.3,1.9l7.4,-97.7l54.4,2.4l-1.7,23.3l-1,18l0.2,2l4.4,4.1l2,1.1l1.8,0l0.5,-1.2l0.7,0.9l2.4,0.2l1.1,-0.6l0,-0.2l1,0.5l-0.4,3.7l4.5,0.7l2.4,0.9l4.2,0.7l2.6,1.8l2.8,-1.9l2.7,0.6l2.2,3.1l0.8,0.1l0,2.1l3.3,1.1l2.5,-2.1l1.5,0.5l2.1,0.1l0.6,2.1l5.2,2l2.3,-0.5l1.9,-4l0.1,0l1.1,1.9l4.6,0.9l3.4,1.3l3.2,1l2.4,-1.2l0.7,-2.3l3.6,0l2.1,1l3,-2l0.4,0l0.5,1.4l4.7,0l1.9,-1.8l1.3,0.4l1.7,2.1l3.3,1.9l3.4,1l2.5,1.4l2.7,2l3.1,-1.2l2.1,0.8l0.7,20l0.7,9.5l0.6,4.1l2.6,4.4l0.9,4.5l4.2,5.9l0.3,3.1l0.6,0.8l-0.7,7.7l-2.9,4.8l1.3,2.6l-0.5,2.4l-0.8,7.2l-1.3,3l0.3,4.2l-5.6,1.6l-9.9,4.5l-1,1.9l-2.6,1.9l-2.1,1.5l-1.3,0.8l-5.7,5.3l-2.7,2.1l-5.3,3.2l-5.7,2.4l-6.3,3.4l-1.8,1.5l-5.8,3.6l-3.4,0.6l-3.9,5.5l-4,0.3l-1,1.9l2.3,1.9l-1.5,5.5l-1.3,4.5l-1.1,3.9l-0.8,4.5l0.8,2.4l1.8,7l1,6.1l1.8,2.7l-1,1.5l-3.1,1.9l-5.7,-3.9l-5.5,-1.1l-1.3,0.5l-3.2,-0.6l-4.2,-3.1l-5.2,-1.1l-7.6,-3.4l-2.1,-3.9l-1.3,-6.5l-3.2,-1.9l-0.6,-2.3l0.6,-0.6l0.3,-3.4l-1.3,-0.6l-0.6,-1l1.3,-4.4l-1.6,-2.3l-3.2,-1.3l-3.4,-4.4l-3.6,-6.6l-4.2,-2.6l0.2,-1.9l-5.3,-12.3l-0.8,-4.2l-1.8,-1.9l-0.2,-1.5l-6,-5.3l-2.6,-3.1l0,-1.1l-2.6,-2.1l-6.8,-1.1l-7.4,-0.6l-3.1,-2.3l-4.5,1.8l-3.6,1.5l-2.3,3.2l-1,3.7l-4.4,6.1l-2.4,2.4l-2.6,-1l-1.8,-1.1l-1.9,-0.6l-3.9,-2.3l0,-0.6l-1.8,-1.9l-5.2,-2.1l-7.4,-7.8l-2.3,-4.7l0,-8.1l-3.2,-6.5l-0.5,-2.7l-1.6,-1l-1.1,-2.1l-5,-2.1l-1.3,-1.6l-7.1,-7.9l-1.3,-3.2l-4.7,-2.3l-1.5,-4.4l-2.6,-2.9l-1.7,-0.5l-0.6,-5.4zm174.4,141.7l-0.6,-7.1l-2.7,-7.2l-0.6,-7l1.5,-8.2l3.3,-6.9l3.5,-5.4l3.2,-3.6l0.6,0.2l-4.8,6.6l-4.4,6.5l-2,6.6l-0.3,5.2l0.9,6.1l2.6,7.2l0.5,5.2l0.2,1.5l-0.9,0.3z"
         id="TX" />
      <path
         d="m228.4,305.9l24.6,3.6l1.9,-13.7l7,-50.5l2.3,-22l-32.2,-3.5l2.2,-13.1l1.8,-10.6l-34.7,-6.1l-12.5,-2.5l-10.6,52.9l-5.4,30l-3.3,15.4l-1.7,9.2l60.6,10.9z"
         id="UT" />
      <path
         d="m834.7,265.2l-0.2,2.8l-2.9,3.8l-0.4,4.6l0.5,3.4l-1.8,5l-2.2,1.9l-1.5,-4.6l0.4,-5.4l1.6,-4.2l0.7,-3.3l-0.1,-1.7l5.9,-2.3zm-60.3,44.6l-38.6,5.6l-4.8,-0.1l-2.2,-0.3l-2.5,1.9l-7.3,0.1l-10.3,1.6l-6.7,0.6l4.1,-2.6l4.1,-2.3l0,-2.1l5.7,-7.3l4.1,-3.7l2.2,-2.5l3.6,4.3l3.8,0.9l2.7,-1l2,-1.5l2.4,1.2l4.6,-1.3l1.7,-4.4l2.4,0.7l3.2,-2.3l1.6,0.4l2.8,-3.2l0.2,-2.7l-0.8,-1.2l4.8,-10.5l1.8,-5.2l0.5,-4.7l0.7,-0.2l1.1,1.7l1.5,1.2l3.9,-0.2l1.7,-8.1l3,-0.6l0.8,-2.6l2.8,-2.2l1.1,-2.1l1.8,-4.3l0.1,-4.6l3.6,1.4l6.6,3.1l0.3,-5.2l3.4,1.2l-0.6,2.9l8.6,3.1l1.4,1.8l-0.8,3.3l-1.3,1.3l-0.5,1.7l0.5,2.4l2,1.3l3.9,1.4l2.9,1l4.9,0.9l2.2,2.1l3.2,0.4l0.9,1.2l-0.4,4.7l1.4,1.1l-0.5,1.9l1.2,0.8l-0.2,1.4l-2.7,-0.1l0.1,1.6l2.3,1.5l0.1,1.4l1.8,1.8l0.5,2.5l-2.6,1.4l1.6,1.5l5.8,-1.7l3.7,6.2l-56.9,12.3z"
         id="VA" />
      <path
         d="m832.7,111.3l2.4,6.5l0.8,5.3l-1,3.9l2.5,4.4l0.9,2.3l-0.7,2.6l3.3,1.5l2.9,10.8l0,5.3l11.5,-2.1l-1,-1.1l0.6,-1.9l0.2,-4.3l-1,-1.4l0.2,-4.7l0.8,-9.3l0,-8.5l-1.1,-1.8l0,-1.6l2.8,-1.1l3.5,-4.4l0,-3.6l-1.9,-2.7l-0.3,-5.79l-26.1,6.79l0.7,4.9z"
         id="VT" />
      <path
         d="m74.5,67.7l-2.3,-4.3l-4.1,-0.7l-0.4,-2.4l-2.5,-0.6l-2.9,-0.5l-1.8,1l-2.3,-2.9l0.3,-2.9l2.7,-0.3l1.6,-4l-2.6,-1.1l0.2,-3.7l4.4,-0.6l-2.7,-2.7l-1.5,-7.1l0.6,-2.9l0,-7.9l-1.8,-3.2l2.3,-9.4l2.1,0.5l2.4,2.9l2.7,2.6l3.2,1.9l4.5,2.1l3.1,0.6l2.9,1.5l3.4,1l2.3,-0.2l0,-2.4l1.3,-1.1l2.1,-1.3l0.3,1.1l0.3,1.8l-2.3,0.5l-0.3,2.1l1.8,1.5l1.1,2.4l0.6,1.9l1.5,-0.2l0.2,-1.3l-1,-1.3l-0.5,-3.2l0.8,-1.8l-0.6,-1.5l0,-2.6l1.8,-3.6l-1.1,-2.6l-2.4,-4.8l0.3,-0.8l1.4,-0.8l4.4,1.5l9.7,2.7l8.6,1.9l20,5.7l23,5.7l15,3.49l-4.8,17.56l-4.5,20.83l-3.4,16.25l-0.4,9.18l-12.9,-3.72l-15.3,-3.47l-14.5,0.32l-1.1,-1.53l-5.7,2.09l-3.9,-0.42l-2.6,-1.79l-1.7,0.65l-4.15,-0.25l-1.72,-1.32l-5.16,-1.82l-1.18,-0.16l-4.8,-1.39l-1.92,1.65l-5.65,-0.25l-4.61,-3.35l0.19,-8.75zm9.6,-55.4l2,-0.2l0.5,1.4l1.5,-1.6l2.3,0l0.8,1.5l-1.5,1.7l0.6,0.8l-0.7,2l-1.4,0.4s-0.9,0.1 -0.9,-0.2c0,-0.3 1.5,-2.6 1.5,-2.6l-1.7,-0.6l-0.3,1.5l-0.7,0.6l-1.5,-2.3l-0.5,-2.4z"
         id="WA" />
      <path
         d="m541.4,109.9l2.9,0.5l2.9,-0.6l7.4,-3.2l2.9,-1.9l2.1,-0.8l1.9,1.5l-1.1,1.1l-1.9,3.1l-0.6,1.9l1,0.6l1.8,-1l1.1,-0.2l2.7,0.8l0.6,1.1l1.1,0.2l0.6,-1.1l4,5.3l8.2,1.2l8.2,2.2l2.6,1.1l12.3,2.6l1.6,2.3l3.6,1.2l1.7,10.2l1.6,1.4l1.5,0.9l-1.1,2.3l-1.8,1.6l-2.1,4.7l-1.3,2.4l0.2,1.8l1.5,0.3l1.1,-1.9l1.5,-0.8l0.8,-2.3l1.9,-1.8l2.7,-4l4.2,-6.3l0.8,-0.5l0.3,1l-0.2,2.3l-2.9,6.8l-2.7,5.7l-0.5,3.2l-0.6,2.6l0.8,1.3l-0.2,2.7l-1.9,2.4l-0.5,1.8l0.6,3.6l0.6,3.4l-1.5,2.6l-0.8,2.9l-1,3.1l1.1,2.4l0.6,6.1l1.6,4.5l-0.2,3l-15.9,1.8l-17.5,1l-12.7,0l-0.7,-1.5l-2.9,-0.4l-2.6,-1.3l-2.3,-3.7l-0.3,-3.6l2,-2.9l-0.5,-1.4l-2.1,-2.2l-0.8,-3.3l-0.6,-6.8l-2.1,-2.5l-7,-4.5l-3.8,-5.4l-3.4,-1l-2.2,-2.8l-3.2,0l-2.9,-3.3l-0.5,-6.5l0.1,-3.8l1.5,-3.1l-0.8,-3.2l-2.5,-2.8l1.8,-5.4l5.2,-3.8l1.6,-1.9l-0.2,-8.1l0.2,-2.8l2.4,-2.8l1,0.7z"
         id="WI" />
      <path
         d="m758.9,254.3l5.8,-6l2.6,-0.8l1.6,-1.5l1.5,-2.2l1.1,0.3l3.1,-0.2l4.6,-3.6l1.5,-0.5l1.3,1l2.6,1.2l3,3l-0.4,4.3l-5.4,-2.6l-4.8,-1.8l-0.1,5.9l-2.6,5.7l-2.9,2.4l-0.8,2.3l-3,0.5l-1.7,8.1l-2.8,0.2l-1.1,-1l-1.2,-2l-2.2,0.5l-0.5,5.1l-1.8,5.1l-5,11l0.9,1.4l-0.1,2l-2.2,2.5l-1.6,-0.4l-3.1,2.3l-2.8,-0.8l-1.8,4.9l-3.8,1l-2.5,-1.3l-2.5,1.9l-2.3,0.7l-3.2,-0.8l-3.8,-4.5l-3.5,-2.2l-2.5,-2.5l-2.9,-3.7l-0.5,-2.3l-2.8,-1.7l-0.6,-1.3l-0.2,-5.6l0.3,0.1l2.4,-0.2l1.8,-1l0,-2.2l1.7,-1.5l0.1,-5.2l0.9,-3.6l1.1,-0.7l0.4,0.3l1,1.1l1.7,0.5l1.1,-1.3l-1,-3.1l0,-1.6l3.1,-4.6l1.2,-1.3l2,0.5l2.6,-1.8l3.1,-3.4l2.4,-4.1l0.2,-5.6l0.5,-4.8l0,-4.9l-1.1,-3l0.9,-1.3l0.8,-0.7l4.3,19.3l4.3,-0.8l11.2,-1.3l2.4,12.2z"
         id="WV" />
      <path
         d="m353,161.9l-1.5,25.4l-4.4,44l-2.7,-0.3l-83.3,-9.1l-27.9,-3l2,-12l6.9,-41l3.8,-24.2l1.3,-11.2l48.2,7l59.1,6.5l-1.5,17.9z"
         id="WY" />
    </g>
  </g>
</svg>